<svg xmlns="http://www.w3.org/2000/svg" viewBox="0 0 24 24">
  <path d="M20.79 13.95l-1.07.83a.5.5 0 0 0-.15.67l.83 1.07a.5.5 0 0 0 .67.15l1.07-.83a.5.5 0 0 0 .15-.67l-.83-1.07a.5.5 0 0 0-.67-.15zM6.5 13.5l-1.07.83a.5.5 0 0 0-.15.67l.83 1.07a.5.5 0 0 0 .67.15l1.07-.83a.5.5 0 0 0 .15-.67l-.83-1.07a.5.5 0 0 0-.67-.15zM14 15.5l-2.5 1.5a.5.5 0 0 0-.25.43v3.14a.5.5 0 0 0 .5.5h1a.5.5 0 0 0 .5-.5V19l2.5-1.5a.5.5 0 0 0 .25-.43v-1a.5.5 0 0 0-.5-.5h-1a.5.5 0 0 0-.5.5v.5z" fill="#FFFFFF"/>
  <path d="M18.42 7.21a7 7 0 0 0-13.36 1.9A4 4 0 0 0 6 18h13a5 5 0 0 0-.58-10.79z" fill="#BDC3C7"/>
</svg>